<?xml version="1.0" standalone="no"?>
<!DOCTYPE svg PUBLIC "-//W3C//DTD SVG 20010904//EN"
 "http://www.w3.org/TR/2001/REC-SVG-20010904/DTD/svg10.dtd">
<svg version="1.0" xmlns="http://www.w3.org/2000/svg"
 width="192.000000pt" height="206.000000pt" viewBox="0 0 192.000000 206.000000"
 preserveAspectRatio="xMidYMid meet">

<g transform="translate(0.000000,206.000000) scale(0.100000,-0.100000)"
fill="#000000" stroke="none">
<path d="M885 1849 c-294 -37 -555 -233 -674 -505 -50 -117 -65 -193 -64 -339
0 -101 5 -148 22 -209 79 -294 314 -529 606 -607 109 -29 299 -32 405 -5 296
73 534 297 618 581 151 507 -187 1019 -714 1084 -99 12 -100 12 -199 0z m350
-100 c57 -19 65 -24 43 -27 -48 -6 -30 -22 25 -22 37 0 62 -7 87 -22 l35 -23
-190 -7 c-356 -13 -529 -35 -712 -88 -57 -17 -106 -30 -110 -30 -10 0 58 64
112 106 53 41 154 91 240 121 65 22 82 23 235 20 140 -4 175 -8 235 -28z
m-355 -286 c0 -5 51 -7 112 -5 151 3 258 -21 258 -60 0 -11 -5 -18 -12 -15 -7
2 -13 9 -13 16 0 12 -23 31 -39 31 -5 0 -1 -9 8 -19 17 -19 17 -20 -6 -35 -14
-9 -67 -22 -119 -30 -100 -15 -127 -10 -160 30 -13 16 -12 17 9 12 12 -4 22
-3 22 0 -1 12 -40 57 -40 47 0 -6 5 -16 12 -23 9 -9 9 -12 0 -12 -6 0 -16 9
-22 21 -6 11 -19 19 -28 18 -9 -1 -30 1 -45 6 -21 6 -25 10 -15 16 16 11 78
12 78 2z m537 -8 c71 -30 73 -45 15 -107 -22 -24 -23 -28 -8 -34 9 -4 43 -3
74 1 31 5 73 9 94 9 20 1 34 5 31 10 -3 4 5 5 17 1 15 -5 20 -4 16 4 -5 7 1
11 14 11 15 0 26 -12 40 -42 10 -23 16 -46 14 -50 -3 -4 -23 -8 -45 -8 -23 0
-38 4 -34 9 3 6 -16 2 -42 -7 l-48 -17 65 -6 c36 -3 73 -2 82 3 9 4 21 8 26 8
17 0 37 -125 37 -235 0 -109 -9 -158 -46 -264 -35 -96 -30 -93 -97 -70 -60 21
-182 37 -182 24 0 -21 65 -117 100 -149 22 -20 40 -40 40 -44 0 -4 -18 -26
-40 -47 l-40 -39 -51 49 c-28 28 -75 84 -104 125 -67 95 -87 113 -158 144 -64
29 -67 30 -67 18 0 -5 18 -17 40 -27 52 -23 115 -92 141 -153 12 -27 48 -75
86 -114 56 -57 64 -69 54 -82 -12 -14 -18 -12 -55 13 -22 16 -52 41 -65 55
-14 14 -31 26 -38 26 -7 0 -18 11 -23 25 -6 15 -15 23 -23 19 -15 -5 -57 78
-57 114 0 28 -47 71 -105 98 -78 34 -106 38 -44 5 61 -33 104 -77 127 -131 18
-44 81 -125 107 -138 33 -17 135 -101 135 -112 0 -20 -24 -9 -103 49 -117 84
-152 122 -172 182 -27 81 -79 126 -208 178 -60 24 -138 62 -175 85 -37 22 -95
50 -129 63 -35 12 -106 52 -159 87 -53 36 -127 77 -165 91 -62 24 -69 30 -69
53 0 57 10 70 53 76 143 19 171 19 200 -4 15 -12 47 -61 71 -109 24 -47 57
-98 73 -112 44 -40 122 -91 146 -94 12 -2 58 -22 102 -44 86 -44 141 -59 157
-43 7 7 -13 15 -62 26 -67 16 -157 52 -148 61 2 2 34 -7 71 -20 37 -14 76 -25
85 -25 9 1 -18 12 -60 26 -42 13 -100 40 -130 60 -31 21 -45 27 -34 15 13 -15
15 -21 6 -21 -8 0 -25 13 -39 28 -14 15 -20 20 -12 10 24 -30 7 -29 -35 1 -27
20 -56 59 -92 124 -29 52 -59 100 -67 107 -18 15 -20 37 -3 42 7 3 5 7 -6 11
-11 4 -15 3 -10 -4 4 -8 -1 -9 -17 -4 -13 5 -49 11 -79 14 l-55 7 35 18 c18
10 41 26 50 34 14 14 13 15 -3 9 -10 -4 -26 -7 -35 -7 -11 0 -13 -3 -6 -8 6
-4 -20 -22 -63 -43 -40 -20 -73 -33 -73 -28 0 5 18 18 40 29 45 23 53 35 14
19 -15 -5 -29 -8 -31 -6 -11 11 32 89 56 102 102 52 316 66 436 28 84 -27 145
-66 145 -93 0 -17 7 -20 48 -20 26 0 101 7 167 14 179 22 262 64 249 129 -7
31 2 33 53 12z m242 -74 c-15 -5 -22 6 -14 19 6 9 10 9 16 -1 5 -8 4 -15 -2
-18z m-1328 -142 c-16 -6 -28 -6 -35 1 -7 7 1 10 25 9 32 0 33 -1 10 -10z
m-83 -156 c15 -9 62 -42 104 -72 66 -46 76 -57 65 -70 -9 -12 -9 -13 1 -7 6 4
12 3 12 -3 0 -5 -8 -15 -17 -20 -16 -10 -16 -10 2 -11 12 0 26 5 33 12 6 6 14
9 18 6 3 -4 -5 -12 -17 -19 -31 -16 -221 -23 -230 -8 -4 6 -7 50 -8 97 -1 80
-1 84 16 71 17 -13 17 -13 1 7 -31 36 -23 44 20 17z m546 -168 c11 -8 15 -15
10 -15 -6 0 -19 7 -30 15 -10 8 -14 14 -9 14 6 0 19 -6 29 -14z m-416 -80
c123 -19 150 -27 216 -64 79 -45 87 -81 31 -130 -82 -71 -265 -136 -265 -93 0
5 29 17 64 26 86 24 185 82 193 115 8 32 -26 62 -101 90 -55 20 -209 51 -258
51 -16 0 -28 5 -28 10 0 14 33 13 148 -5z m41 -56 c145 -37 176 -77 97 -128
-59 -37 -172 -67 -192 -50 -8 6 -12 15 -9 19 3 4 -1 13 -9 19 -16 14 -60 111
-53 118 3 2 21 0 39 -5 27 -7 35 -7 35 4 0 9 -12 14 -33 14 -28 0 -64 21 -64
37 0 9 108 -7 189 -28z m416 -29 c17 -7 17 -9 3 -9 -12 -1 -21 -15 -28 -43
-13 -53 -31 -89 -75 -152 -48 -66 -46 -93 9 -144 25 -23 55 -44 68 -47 13 -3
41 -9 63 -15 40 -10 40 -10 -10 -5 -83 8 -142 33 -175 73 -42 51 -39 78 20
158 50 69 76 133 66 161 -12 31 16 42 59 23z m430 -80 c21 -22 36 -43 32 -47
-4 -4 -14 3 -23 15 -9 13 -28 34 -42 47 -15 14 -22 25 -16 25 5 0 27 -18 49
-40z m-321 -39 c10 -9 35 -41 56 -71 41 -60 71 -90 92 -94 34 -5 258 -130 258
-144 0 -7 -38 -25 -75 -36 -11 -3 -27 -1 -35 5 -12 8 -9 9 10 4 l25 -6 -25 15
c-30 18 -65 23 -40 5 12 -8 11 -9 -5 -5 -77 19 -112 26 -205 41 -126 20 -196
54 -216 102 -17 41 -9 65 52 148 49 66 66 72 108 36z m494 -183 c7 -10 19 -18
26 -18 7 0 13 -7 13 -15 0 -8 -3 -15 -6 -15 -10 0 -121 115 -121 125 0 9 65
-48 88 -77z m-460 -125 c-10 -2 -26 -2 -35 0 -10 3 -2 5 17 5 19 0 27 -2 18
-5z m199 -67 c4 -3 0 -6 -8 -6 -8 -1 -86 -3 -175 -6 -119 -3 -168 -1 -190 8
-26 12 -14 14 111 18 134 5 250 -1 262 -14z"/>
<path d="M988 1723 c7 -3 16 -2 19 1 4 3 -2 6 -13 5 -11 0 -14 -3 -6 -6z"/>
<path d="M1143 1723 c15 -2 37 -2 50 0 12 2 0 4 -28 4 -27 0 -38 -2 -22 -4z"/>
<path d="M738 1688 c9 -9 15 -9 24 0 9 9 7 12 -12 12 -19 0 -21 -3 -12 -12z"/>
<path d="M823 1693 c9 -2 23 -2 30 0 6 3 -1 5 -18 5 -16 0 -22 -2 -12 -5z"/>
<path d="M1178 1693 c12 -2 30 -2 40 0 9 3 -1 5 -23 4 -22 0 -30 -2 -17 -4z"/>
<path d="M338 1303 c7 -3 16 -2 19 1 4 3 -2 6 -13 5 -11 0 -14 -3 -6 -6z"/>
<path d="M574 1291 c11 -12 23 -41 27 -64 6 -41 7 -41 8 -7 1 40 -17 81 -39
88 -11 4 -10 -1 4 -17z"/>
<path d="M1210 1300 c-19 -6 -14 -8 25 -7 35 0 44 2 30 8 -24 9 -23 9 -55 -1z"/>
<path d="M1638 1303 c7 -3 16 -2 19 1 4 3 -2 6 -13 5 -11 0 -14 -3 -6 -6z"/>
<path d="M420 1281 c0 -8 41 -23 47 -17 2 1 -8 8 -22 14 -14 6 -25 8 -25 3z"/>
<path d="M1040 1255 c88 -16 143 -19 120 -6 -8 5 -55 11 -105 14 l-90 6 75
-14z"/>
<path d="M1296 1263 c-22 -3 -26 -7 -16 -13 8 -5 12 -11 10 -13 -3 -3 -52 -16
-110 -30 -58 -15 -89 -24 -70 -21 138 22 231 44 270 62 l45 21 -50 -1 c-27 -1
-63 -3 -79 -5z"/>
<path d="M1205 1250 c-3 -5 -1 -10 4 -10 6 0 11 5 11 10 0 6 -2 10 -4 10 -3 0
-8 -4 -11 -10z"/>
<path d="M960 1220 c19 -6 43 -15 53 -21 10 -5 23 -7 29 -3 16 10 -10 21 -67
28 -45 5 -47 5 -15 -4z"/>
<path d="M825 1186 c-20 -29 -16 -88 5 -94 12 -4 13 -2 3 9 -17 17 -16 44 2
79 19 36 12 40 -10 6z"/>
<path d="M720 1180 c-12 -8 -12 -10 2 -15 26 -10 43 -2 26 12 -8 7 -19 8 -28
3z"/>
<path d="M1580 1175 c-7 -9 -11 -17 -9 -20 3 -2 10 5 17 15 14 24 10 26 -8 5z"/>
<path d="M612 1160 c0 -14 2 -19 5 -12 2 6 2 18 0 25 -3 6 -5 1 -5 -13z"/>
<path d="M1048 1173 c7 -3 16 -2 19 1 4 3 -2 6 -13 5 -11 0 -14 -3 -6 -6z"/>
<path d="M915 1126 c-39 -19 -65 -35 -60 -35 6 0 42 15 80 34 39 18 65 34 60
34 -6 1 -42 -14 -80 -33z"/>
<path d="M717 1137 c-6 -16 39 -65 49 -54 3 3 2 18 -3 34 -11 31 -37 42 -46
20z"/>
<path d="M621 1125 c0 -5 6 -21 14 -35 17 -31 19 -44 3 -34 -7 4 -8 3 -4 -5 4
-6 12 -9 17 -5 6 3 9 0 7 -7 -1 -8 2 -15 7 -17 6 -2 19 -11 30 -20 18 -15 17
-14 -1 8 -12 14 -33 48 -47 75 -15 28 -26 46 -26 40z"/>
<path d="M250 1118 c0 -3 33 -17 73 -33 39 -15 101 -48 137 -73 36 -25 106
-64 155 -87 50 -23 117 -58 150 -78 33 -21 64 -37 69 -37 12 0 -83 59 -185
115 -42 23 -91 52 -110 66 -18 13 -39 24 -46 25 -17 3 -115 65 -110 70 10 11
77 -20 92 -42 24 -36 29 -23 9 20 -10 21 -25 36 -35 36 -10 0 -19 5 -21 12 -3
9 -12 9 -36 -1 -30 -13 -51 -12 -116 5 -14 3 -26 4 -26 2z"/>
<path d="M1558 1113 c7 -3 16 -2 19 1 4 3 -2 6 -13 5 -11 0 -14 -3 -6 -6z"/>
<path d="M1325 1080 c-16 -7 -17 -9 -3 -9 9 -1 20 4 23 9 7 11 7 11 -20 0z"/>
<path d="M905 1070 c3 -5 8 -10 11 -10 2 0 4 5 4 10 0 6 -5 10 -11 10 -5 0 -7
-4 -4 -10z"/>
<path d="M875 1060 c3 -5 11 -10 16 -10 6 0 7 5 4 10 -3 6 -11 10 -16 10 -6 0
-7 -4 -4 -10z"/>
<path d="M1194 1059 c-7 -12 9 -24 60 -47 29 -12 29 -12 13 6 -24 27 -21 40
11 45 15 2 4 5 -25 6 -29 0 -55 -4 -59 -10z"/>
<path d="M976 1041 c-3 -5 1 -14 9 -21 8 -7 15 -9 15 -6 0 4 7 0 15 -8 19 -18
160 -64 224 -73 54 -7 118 -32 86 -33 -16 0 -17 -2 -5 -9 14 -9 90 -13 90 -4
0 8 -86 40 -140 53 -111 25 -216 60 -252 85 -20 14 -39 21 -42 16z"/>
<path d="M930 1026 c0 -2 8 -10 18 -17 15 -13 16 -12 3 4 -13 16 -21 21 -21
13z"/>
<path d="M809 979 c64 -37 162 -74 251 -95 151 -35 396 -67 378 -48 -4 3 -26
7 -50 9 -213 17 -503 91 -577 147 -13 10 -31 18 -40 18 -9 0 8 -14 38 -31z"/>
<path d="M1096 935 c4 -8 12 -15 20 -15 20 0 17 7 -6 20 -16 9 -18 8 -14 -5z"/>
<path d="M1420 876 c0 -2 7 -7 16 -10 8 -3 12 -2 9 4 -6 10 -25 14 -25 6z"/>
<path d="M1040 834 c30 -8 80 -16 110 -19 39 -3 27 1 -40 14 -110 22 -151 25
-70 5z"/>
<path d="M1490 830 c-33 -7 -32 -7 15 -8 28 0 64 4 80 8 27 7 25 8 -15 8 -25
-1 -61 -4 -80 -8z"/>
<path d="M1041 806 c2 -2 29 -6 59 -9 36 -4 46 -3 30 3 -25 8 -97 13 -89 6z"/>
<path d="M1221 806 c7 -7 280 -46 336 -49 29 -1 53 -4 53 -7 0 -11 45 -5 65 8
11 8 13 11 4 9 -18 -6 -262 16 -359 32 -67 11 -106 14 -99 7z"/>
<path d="M1208 783 c6 -2 18 -2 25 0 6 3 1 5 -13 5 -14 0 -19 -2 -12 -5z"/>
<path d="M320 986 c0 -2 8 -10 18 -17 15 -13 16 -12 3 4 -13 16 -21 21 -21 13z"/>
<path d="M339 933 c-13 -16 -12 -17 4 -4 9 7 17 15 17 17 0 8 -8 3 -21 -13z"/>
<path d="M368 893 c7 -3 16 -2 19 1 4 3 -2 6 -13 5 -11 0 -14 -3 -6 -6z"/>
<path d="M345 751 c-6 -11 13 -26 22 -17 4 3 0 6 -8 6 -11 0 -11 2 1 10 9 6
10 10 3 10 -6 0 -14 -4 -18 -9z"/>
<path d="M407 735 c42 -19 48 -32 27 -56 -24 -27 -31 -24 -26 11 2 17 0 30 -6
30 -6 0 -8 -9 -5 -20 4 -15 -2 -23 -27 -34 -21 -9 -28 -15 -19 -19 9 -4 8 -6
-5 -6 -11 -1 -17 -3 -14 -6 10 -10 58 7 52 17 -4 6 1 8 13 4 20 -6 73 26 73
44 0 12 -39 36 -70 44 -19 4 -17 2 7 -9z"/>
<path d="M927 583 c-26 -26 12 -87 59 -96 24 -4 24 -3 9 19 -8 13 -15 33 -15
44 0 13 -4 19 -12 14 -6 -4 -16 0 -23 9 -7 9 -15 14 -18 10z"/>
<path d="M1047 459 c7 -7 15 -10 18 -7 3 3 -2 9 -12 12 -14 6 -15 5 -6 -5z"/>
</g>
</svg>
