<?xml version="1.0" standalone="no"?>
<!DOCTYPE svg PUBLIC "-//W3C//DTD SVG 20010904//EN"
 "http://www.w3.org/TR/2001/REC-SVG-20010904/DTD/svg10.dtd">
<svg version="1.0" xmlns="http://www.w3.org/2000/svg"
 width="1353.000000pt" height="287.000000pt" viewBox="0 0 1353.000000 287.000000"
 preserveAspectRatio="xMidYMid meet">

<g transform="translate(0.000000,287.000000) scale(0.100000,-0.100000)"
fill="#000000" stroke="none">
<path d="M7 2863 c-4 -3 -7 -649 -7 -1435 l1 -1428 6764 0 6765 0 0 1435 0
1435 -6758 0 c-3717 0 -6762 -3 -6765 -7z m156 -70 c-18 -2 -48 -2 -65 0 -18
2 -4 4 32 4 36 0 50 -2 33 -4z m3852 -13 c32 -11 60 -18 62 -16 2 2 -15 11
-39 19 -24 9 -35 16 -25 16 10 1 112 -30 228 -69 385 -128 598 -179 1324 -319
704 -136 1020 -201 1023 -211 2 -6 12 -10 23 -10 11 0 27 -4 37 -9 22 -12 149
-42 182 -43 46 -1 83 -10 71 -17 -6 -4 34 -21 91 -38 56 -16 104 -35 106 -42
5 -14 -1 -14 -373 40 -267 39 -771 103 -1205 154 -379 44 -692 92 -1310 201
-140 25 -263 43 -273 40 -9 -2 -90 6 -180 19 -397 58 -428 60 -857 60 -223 -1
-394 1 -380 2 14 2 84 7 155 11 100 6 54 8 -200 7 -207 0 -373 5 -445 13 -205
24 -451 62 -652 102 -167 34 -215 40 -310 38 -88 -1 -102 -3 -63 -8 40 -5 28
-7 -57 -8 -76 -2 -108 1 -108 10 0 8 -77 10 -307 5 -170 -4 -343 -10 -386 -13
-50 -5 -77 -3 -77 3 0 14 44 20 295 39 249 19 795 32 985 23 113 -5 165 -14
325 -53 362 -89 555 -112 843 -102 749 27 805 22 1582 -119 475 -87 642 -115
880 -150 312 -46 383 -54 525 -59 140 -5 140 -5 80 10 -33 8 -218 46 -411 84
-532 105 -1030 231 -1409 358 l-150 50 171 1 c146 1 179 -2 229 -19z m307 -20
c351 -124 563 -176 1378 -335 401 -78 721 -146 1035 -220 489 -115 511 -119
680 -129 134 -7 302 27 418 85 75 38 93 32 43 -15 -26 -25 -44 -35 -57 -31
-22 7 -73 -17 -92 -45 -18 -26 -85 -55 -172 -74 -64 -15 -65 -15 -15 -9 30 4
72 7 92 7 21 0 32 3 26 7 -12 8 -11 9 38 24 8 3 12 0 9 -5 -10 -16 11 -12 71
15 150 66 302 207 387 356 26 46 79 157 119 247 l71 162 49 0 48 0 -30 -52
c-17 -29 -47 -84 -67 -123 -43 -84 -169 -300 -195 -334 -29 -38 -21 -45 13
-12 16 17 74 113 129 213 168 312 161 303 208 306 38 3 40 2 35 -20 l-5 -23
16 23 c17 21 23 22 169 21 l152 0 -87 -45 c-49 -24 -88 -49 -88 -54 0 -5 26 6
58 25 50 31 112 46 112 29 0 -4 -16 -32 -35 -64 -67 -110 -98 -188 -103 -261
-6 -83 6 -116 60 -165 35 -31 328 -181 703 -359 50 -24 173 -83 275 -133 102
-49 271 -131 375 -182 363 -176 614 -294 1250 -587 708 -327 759 -350 1495
-668 618 -267 570 -245 570 -262 0 -10 -27 -13 -126 -13 l-126 0 -146 64 c-81
35 -239 103 -352 151 -790 336 -1972 895 -3047 1443 -301 153 -631 321 -733
371 -101 51 -199 103 -217 117 -50 38 -90 127 -63 136 6 2 13 23 16 48 3 25 9
63 14 85 12 50 13 112 2 119 -13 8 -70 -25 -87 -50 l-16 -24 38 20 38 20 3
-20 c2 -11 -4 -54 -12 -96 -9 -42 -16 -93 -16 -113 1 -49 32 -114 69 -142 57
-42 1515 -780 2144 -1086 587 -284 1071 -508 1980 -914 l277 -124 -50 -3 c-47
-3 -73 7 -333 127 -1297 595 -2150 1008 -2962 1431 -148 78 -380 198 -515 267
-540 277 -570 293 -599 337 -25 38 -26 45 -24 163 l2 123 -31 -17 c-17 -10
-41 -24 -55 -31 -13 -8 -28 -23 -32 -35 -11 -26 -161 -209 -240 -290 -72 -75
-194 -171 -295 -233 -44 -26 -74 -50 -68 -52 7 -2 25 8 42 21 16 14 43 28 60
32 16 4 30 11 30 15 0 5 33 30 73 56 43 28 139 114 240 213 133 131 170 163
177 151 5 -8 10 -20 10 -27 0 -35 38 -130 61 -152 15 -14 130 -80 255 -145
126 -65 409 -217 629 -336 696 -378 1027 -546 2600 -1320 l599 -295 -65 -3
-65 -3 -340 174 c-476 244 -1615 821 -1628 826 -59 20 336 -205 702 -401 122
-65 253 -137 290 -160 37 -22 164 -95 282 -161 309 -171 470 -271 445 -275
-11 -3 -69 -2 -130 0 -126 6 -190 26 -365 113 -58 29 -121 55 -140 58 -19 3
-137 63 -262 134 -338 190 -537 295 -548 288 -5 -3 -126 61 -267 143 -142 81
-266 151 -276 155 -39 15 -3 -14 66 -54 207 -120 573 -339 650 -391 108 -72
297 -233 297 -253 0 -26 -19 -26 -82 0 -35 15 -86 31 -115 37 -46 9 -53 13
-58 40 -10 45 -61 96 -134 133 -36 18 -111 65 -165 105 -55 39 -145 96 -200
127 -82 45 -861 507 -875 520 -46 38 266 -128 524 -278 33 -19 68 -38 78 -42
149 -56 -918 561 -1293 748 -117 58 -72 26 140 -99 316 -187 298 -182 -75 19
-146 79 -282 146 -302 150 -21 4 -61 20 -89 36 -28 16 -61 29 -73 29 -12 0
-50 12 -84 27 -54 24 -75 27 -162 27 l-100 1 -270 -136 c-148 -74 -340 -163
-425 -196 -331 -131 -573 -238 -829 -367 -146 -74 -287 -144 -313 -156 -25
-11 -67 -37 -92 -56 -47 -36 -120 -73 -144 -74 -7 0 -75 -30 -150 -68 -75 -37
-165 -79 -199 -94 -63 -26 -82 -48 -42 -48 11 0 17 -5 14 -10 -3 -6 -17 -10
-31 -10 -16 0 -38 -13 -58 -35 -19 -19 -40 -35 -49 -35 -13 0 -13 5 1 43 24
61 172 207 245 240 32 14 66 40 83 62 28 35 224 184 386 293 144 97 367 195
753 332 143 51 304 110 357 131 106 42 321 147 353 173 11 9 -54 -20 -145 -64
-110 -52 -257 -111 -440 -175 -432 -149 -496 -173 -650 -241 -330 -145 -796
-431 -946 -581 -98 -98 -224 -300 -224 -359 0 -27 -66 -140 -96 -165 -20 -17
-18 -5 15 59 16 31 41 91 55 132 36 100 78 176 138 250 56 69 58 97 2 32 -19
-23 -40 -42 -46 -42 -6 0 -4 8 5 18 26 29 20 38 -8 12 -14 -13 -25 -30 -25
-37 0 -8 -7 -21 -15 -29 -8 -9 -15 -27 -15 -41 0 -29 -79 -205 -90 -198 -11 7
-29 -41 -24 -61 6 -24 -53 -122 -125 -209 l-55 -65 -65 0 -65 0 26 28 c46 49
106 136 137 199 27 52 86 271 76 281 -2 2 -13 -15 -25 -38 -26 -50 -36 -47
-21 7 14 48 14 66 1 58 -15 -10 -11 16 10 63 24 54 118 152 192 203 31 21 60
44 64 51 17 28 -153 -103 -201 -154 -70 -75 -95 -130 -111 -246 -35 -249 -55
-306 -140 -402 l-46 -50 -94 0 -94 0 33 44 c19 23 39 64 47 90 23 82 -4 214
-59 286 -71 93 -101 240 -62 304 23 36 121 118 197 165 125 76 706 332 748
329 11 -1 64 17 116 39 52 23 142 58 200 78 58 21 116 43 130 50 14 7 147 50
295 95 149 45 284 88 300 96 17 8 166 48 333 88 203 49 309 79 320 91 16 16
16 17 -4 7 -15 -8 -69 -8 -180 -2 -286 17 -909 12 -1280 -10 -851 -50 -1296
-123 -1735 -286 -671 -247 -889 -320 -1504 -500 -206 -60 -360 -111 -410 -135
-89 -43 -212 -151 -218 -190 -3 -17 -14 -26 -43 -34 -38 -12 -39 -12 -14 -22
34 -14 147 -31 255 -38 50 -4 205 -26 345 -50 140 -24 334 -55 430 -70 209
-31 363 -64 514 -111 68 -21 121 -32 137 -29 36 8 152 -45 174 -79 14 -21 15
-29 5 -41 -11 -13 -9 -25 10 -66 18 -37 21 -52 12 -61 -35 -35 -174 -52 -186
-23 -4 12 -25 15 -88 16 l-83 1 67 12 c62 10 70 14 93 48 48 71 32 85 -82 69
-121 -17 -374 -125 -358 -152 4 -5 -14 -9 -40 -9 -33 0 -44 3 -39 12 5 8 2 9
-12 2 -16 -8 -1139 -13 -1389 -7 -44 1 -446 0 -892 -3 l-813 -6 0 106 0 106
43 2 42 1 -42 4 -42 4 0 120 0 121 62 -7 c34 -3 208 -17 387 -31 637 -48 1021
-92 1110 -126 23 -9 24 -10 7 -20 -13 -7 -99 -6 -270 1 -489 21 -552 20 -202
-3 193 -13 429 -25 527 -27 225 -5 248 9 84 50 -100 24 -303 55 -501 76 -132
13 -1152 95 -1190 95 -8 0 -15 9 -15 20 0 23 -2 23 145 10 61 -5 234 -16 387
-25 1140 -63 1714 -133 1921 -236 76 -37 97 -56 97 -84 0 -51 -109 -57 -410
-25 -252 28 -331 33 -215 15 258 -39 591 -58 649 -35 52 20 23 66 -80 126 -61
36 -47 43 20 10 60 -30 116 -86 116 -117 0 -32 -56 -49 -167 -50 l-98 -2 65
-9 c88 -12 214 -4 245 16 36 24 32 58 -12 107 -45 50 -86 71 -199 104 -252 73
-510 102 -1694 190 -479 36 -744 60 -761 71 -5 3 -9 56 -9 118 l0 113 193 47
c236 58 647 149 1347 300 1383 297 1764 395 2190 561 158 62 284 101 389 122
146 29 1914 35 2561 9 l115 -5 -105 9 c-230 18 -581 29 -1105 35 -302 3 -734
10 -960 16 -594 16 -620 13 -930 -116 -293 -121 -908 -309 -1415 -431 -102
-25 -599 -137 -1105 -249 -870 -193 -1117 -249 -1158 -261 -16 -5 -17 5 -15
157 l3 163 75 18 c148 37 231 61 227 65 -3 2 -68 -12 -145 -32 -78 -19 -146
-35 -151 -35 -7 0 -10 64 -10 178 l0 177 70 40 c76 43 145 109 155 149 16 64
-38 129 -153 183 l-73 35 0 129 0 129 105 0 c63 0 105 4 105 10 0 6 -1 10 -2
10 -2 0 -48 15 -103 33 l-100 33 -3 106 -3 106 73 7 c40 3 201 15 358 24 169
11 252 19 205 20 -44 2 -89 4 -99 6 -19 4 -276 -8 -451 -21 -63 -4 -87 -3 -80
4 26 28 547 38 740 15 56 -7 58 -8 25 -14 -24 -4 -9 -7 50 -8 47 0 183 -8 302
-17 120 -8 232 -13 250 -11 20 2 9 4 -26 5 -33 1 -57 5 -53 8 3 3 57 2 119 -2
104 -8 109 -9 58 -15 -33 -4 -8 -5 60 -3 81 2 105 0 80 -6 -31 -8 -28 -9 17
-5 29 2 55 0 58 -6 4 -5 12 -9 18 -9 7 0 6 4 -3 11 -11 8 0 9 40 5 30 -3 78
-6 105 -7 36 0 44 -3 30 -8 -12 -5 15 -7 65 -6 47 2 114 -1 150 -6 36 -5 313
-11 615 -13 503 -4 572 -7 805 -31 344 -35 587 -72 1165 -179 317 -58 793
-120 1010 -130 158 -8 302 -23 535 -56 36 -5 90 -12 120 -15 30 -4 195 -26
365 -50 171 -24 348 -46 395 -49 l85 -5 -85 12 -85 11 55 6 c30 3 64 11 75 17
19 11 19 12 -8 22 -16 6 -74 23 -130 37 -95 24 -150 45 -82 31 48 -10 405 -77
410 -77 13 0 3 -19 -12 -24 -10 -3 14 -3 53 -1 39 3 86 10 104 17 30 10 31 12
14 19 -10 4 -53 8 -94 8 -122 2 -267 27 -580 101 -461 108 -772 173 -1370 285
-609 114 -854 173 -1220 295 -187 63 -200 69 -138 70 30 0 88 -14 160 -40z
m95 5 c209 -74 646 -194 763 -208 26 -4 12 2 -35 14 -207 51 -396 105 -565
162 l-185 62 149 3 c143 2 151 2 225 -27 121 -46 284 -97 439 -136 194 -48
463 -107 469 -101 2 2 -40 14 -94 26 -264 58 -479 115 -631 165 -92 30 -174
59 -182 65 -10 6 53 10 191 10 l206 0 164 -55 c156 -52 1298 -349 1307 -340 6
5 -30 15 -603 164 -466 121 -729 197 -765 221 -11 7 8 10 63 10 60 0 99 -7
165 -29 48 -16 121 -37 162 -46 41 -10 161 -42 265 -72 280 -79 547 -145 568
-139 10 2 62 -9 115 -24 142 -43 436 -108 533 -119 115 -12 197 -4 230 23 14
12 24 27 22 32 -5 14 44 47 58 39 5 -4 18 4 29 17 11 13 19 17 20 11 0 -23 32
-13 63 20 47 50 76 124 83 210 l7 77 170 0 170 0 -7 -64 c-8 -80 -35 -183 -70
-265 -15 -35 -25 -65 -23 -67 15 -15 117 283 117 342 0 51 6 54 106 54 52 0
94 -4 94 -8 0 -10 -88 -210 -119 -270 -12 -24 -20 -46 -17 -49 2 -3 12 10 22
29 9 18 29 56 44 83 15 28 46 87 69 133 36 68 47 82 67 82 21 0 24 -3 18 -27
-29 -121 -158 -400 -215 -463 -32 -36 -29 -29 19 51 25 42 75 169 68 176 -2 2
-36 -40 -74 -94 -118 -167 -235 -260 -393 -315 -82 -28 -110 -32 -221 -36
-163 -5 -242 6 -523 73 -551 132 -839 193 -1599 341 -132 25 -329 68 -439 95
-246 62 -658 195 -610 198 6 1 56 -15 110 -34z m1801 -29 c311 -88 303 -86
296 -74 -5 7 9 9 42 5 27 -4 -23 14 -111 39 -88 25 -194 56 -235 69 l-75 23
394 1 c349 1 392 -1 381 -14 -7 -8 -33 -21 -59 -29 -33 -9 -47 -19 -49 -34 -2
-16 4 -22 28 -27 23 -5 29 -10 21 -18 -7 -7 -35 -7 -96 2 -47 7 -88 11 -91 9
-2 -3 33 -13 78 -22 196 -38 318 -2 318 94 l0 41 43 -3 42 -3 3 -77 c2 -67 0
-82 -19 -108 -19 -25 -30 -30 -63 -30 -23 0 -59 -4 -81 -8 l-40 -7 50 -6 c47
-6 46 -6 -22 -7 -39 -1 -84 3 -100 9 -32 12 -109 25 -237 39 -96 11 -341 74
-366 95 -8 6 -67 26 -131 43 -146 40 -203 60 -171 61 13 1 126 -28 250 -63z
m782 58 c0 -29 -46 -64 -102 -78 -41 -9 -36 15 10 53 32 26 92 43 92 25z m50
2 c0 -3 -4 -8 -10 -11 -5 -3 -10 -1 -10 4 0 6 5 11 10 11 6 0 10 -2 10 -4z
m550 -34 c0 -84 -49 -186 -80 -167 -17 10 -70 -44 -70 -71 0 -34 -17 -38 -23
-5 -3 16 3 66 14 112 13 55 17 97 13 126 l-6 43 76 0 76 0 0 -38z m1454 0
c-154 -100 -223 -272 -152 -379 49 -74 122 -114 758 -413 651 -306 971 -446
2098 -921 692 -292 969 -405 1182 -482 210 -76 371 -137 448 -169 72 -30 72
-30 72 -69 0 -21 -2 -39 -5 -39 -2 0 -44 17 -92 39 -48 21 -277 113 -507 205
-382 153 -806 333 -1526 651 -146 64 -473 209 -727 321 -415 183 -530 231
-453 189 42 -22 745 -334 1055 -468 160 -68 439 -191 620 -272 527 -236 836
-366 1295 -545 218 -85 340 -141 340 -156 0 -8 -1 -14 -3 -14 -2 0 -55 23
-118 51 -63 28 -251 107 -419 174 -361 145 -723 299 -1020 435 -311 142 -468
211 -805 358 -165 72 -376 164 -469 206 -93 42 -171 74 -173 72 -4 -4 427
-200 837 -381 146 -65 399 -178 562 -251 395 -178 686 -303 1008 -434 259
-105 589 -245 597 -254 2 -2 3 -26 1 -53 l-3 -49 -320 139 c-1233 532 -1191
513 -2333 1046 -863 403 -889 416 -1242 588 -755 370 -736 360 -773 404 -81
94 -53 219 93 419 l65 89 84 1 84 0 -59 -38z m216 7 c-89 -49 -82 -53 17 -9
l92 40 203 -2 203 -3 -115 -23 c-63 -12 -129 -22 -147 -22 -22 0 -36 -6 -43
-20 -9 -17 -8 -20 14 -20 14 0 118 20 231 45 144 32 225 45 264 43 l56 -3
-124 -33 c-162 -43 -322 -108 -416 -168 -171 -111 -178 -114 -221 -114 -60 0
-143 59 -144 103 0 9 -4 17 -10 17 -13 0 -13 -4 4 -43 15 -36 46 -67 91 -90
17 -9 25 -16 18 -17 -25 0 -69 23 -100 53 -24 22 -33 27 -33 15 0 -39 183
-148 247 -148 34 0 84 44 111 100 62 124 252 226 580 309 67 18 107 21 209 19
l127 -3 -120 -33 c-210 -59 -344 -127 -399 -201 -57 -78 -20 -178 95 -262 89
-65 228 -139 248 -133 12 4 13 3 4 -3 -9 -7 -6 -12 12 -21 19 -8 26 -8 30 1 2
7 5 4 5 -5 1 -17 11 -22 39 -19 7 1 11 -4 10 -11 -2 -8 6 -12 20 -11 14 2 21
-1 17 -7 -8 -13 257 -142 277 -135 7 3 67 -18 133 -46 227 -96 471 -191 810
-316 912 -334 1007 -373 1314 -542 230 -127 316 -171 328 -171 4 0 -30 21 -77
46 -47 25 -156 86 -242 135 -246 141 -395 207 -803 358 -209 78 -411 155 -450
170 -38 16 -95 37 -125 47 -30 9 -109 39 -175 67 -66 27 -163 65 -215 84 -283
103 -878 380 -1053 490 -137 86 -193 203 -135 279 33 42 55 59 128 98 130 68
405 149 489 144 l46 -3 -60 -14 c-177 -39 -379 -123 -455 -188 -100 -86 -66
-197 93 -305 77 -52 346 -191 517 -266 308 -136 541 -221 1303 -478 836 -282
917 -315 1154 -470 64 -42 160 -101 215 -131 l98 -56 0 -63 c0 -35 -3 -64 -6
-64 -4 0 -40 18 -81 41 -41 23 -77 39 -80 36 -3 -3 33 -25 81 -49 70 -35 86
-47 86 -65 0 -13 -2 -23 -5 -23 -15 0 -570 287 -739 382 -126 71 -322 168
-449 222 -134 57 -989 378 -994 373 -2 -2 164 -68 369 -147 730 -280 785 -306
1663 -803 l150 -84 3 -87 3 -87 -28 7 c-226 55 -653 209 -1148 414 -148 61
-499 204 -780 317 -986 397 -1071 433 -1785 765 -710 330 -758 357 -800 439
-56 108 21 263 174 354 56 33 65 35 145 35 l86 0 -55 -31z m1769 27 c-2 -2
-44 -14 -94 -26 -123 -31 -357 -113 -413 -146 -75 -44 -112 -88 -112 -135 0
-22 6 -52 14 -68 16 -31 82 -93 118 -111 12 -7 -2 11 -33 39 -60 54 -92 113
-82 152 9 35 46 81 84 103 33 19 32 17 -13 -32 -40 -43 -48 -58 -48 -90 0 -60
54 -122 167 -191 29 -18 52 -37 50 -43 -1 -6 4 -13 12 -16 8 -3 11 0 7 7 -11
18 12 13 31 -7 19 -19 57 -36 107 -47 22 -5 26 -9 16 -15 -15 -9 7 -17 65 -22
18 -2 29 -8 28 -15 -2 -8 8 -13 26 -13 16 0 34 -7 41 -15 7 -8 22 -15 34 -15
11 0 34 -9 50 -19 17 -11 33 -18 37 -16 11 7 70 -16 64 -25 -6 -10 91 -44 103
-37 4 3 50 -10 102 -28 52 -19 91 -34 85 -35 -23 -3 93 -39 128 -39 39 -1 71
-14 95 -38 7 -7 19 -13 25 -14 7 -1 29 -2 50 -3 22 -2 42 -8 46 -15 4 -7 27
-14 51 -16 23 -3 47 -9 54 -14 6 -5 30 -12 54 -16 23 -4 42 -11 42 -16 0 -5
10 -9 22 -9 22 0 73 -14 118 -33 14 -6 29 -10 33 -8 5 1 24 -8 43 -20 19 -11
51 -21 72 -22 20 0 44 -6 52 -13 13 -10 369 -108 875 -239 77 -20 157 -41 178
-46 l37 -10 0 -89 0 -89 -43 24 c-91 51 -292 117 -1022 335 -995 297 -1455
461 -1870 665 -217 107 -314 194 -315 281 0 70 90 147 238 205 45 18 80 34 78
36 -8 8 -185 -64 -241 -98 -79 -47 -110 -90 -110 -150 0 -87 75 -155 304 -272
220 -113 429 -201 766 -324 167 -60 300 -103 1040 -335 815 -255 885 -278 980
-323 50 -24 113 -61 140 -82 l50 -39 3 -83 3 -83 -43 30 c-24 16 -81 60 -127
96 -196 156 -296 197 -1221 496 -669 217 -1151 392 -1430 520 -353 161 -494
251 -541 343 -67 129 66 233 436 341 118 35 122 35 314 36 107 0 192 -2 190
-4z m540 0 c-2 -3 -59 -18 -126 -35 -258 -65 -446 -142 -502 -206 -24 -27 -31
-45 -31 -76 0 -60 61 -113 213 -188 368 -179 1420 -498 2200 -667 l127 -28 0
-39 c0 -32 -3 -37 -17 -33 -10 3 -90 21 -178 41 -1016 229 -2178 608 -2421
790 -104 78 -118 130 -54 199 66 72 219 137 507 214 78 22 132 30 197 31 49 1
87 -1 85 -3z m866 -11 c-22 -7 -83 -27 -136 -43 -190 -60 -319 -139 -319 -196
0 -51 162 -157 310 -204 74 -24 179 -46 186 -39 2 2 -50 28 -115 56 -327 144
-303 281 72 407 l101 34 458 0 458 0 0 -564 0 -563 -172 39 c-671 150 -1360
351 -1793 523 -215 85 -270 113 -329 167 -35 32 -48 52 -53 81 -5 35 -3 41 41
81 67 63 243 133 511 205 l110 29 355 0 c308 0 350 -1 315 -13z m-3545 -11 c0
-8 -4 -12 -10 -9 -5 3 -10 10 -10 16 0 5 5 9 10 9 6 0 10 -7 10 -16z m-3175
-34 l20 -9 -20 0 c-11 0 -27 4 -35 9 -13 9 -13 10 0 9 8 0 24 -4 35 -9z m5232
-6 c-3 -3 -12 -4 -19 -1 -8 3 -5 6 6 6 11 1 17 -2 13 -5z m-4930 -20 c-3 -3
-12 -4 -19 -1 -8 3 -5 6 6 6 11 1 17 -2 13 -5z m4833 -3 c0 -8 -53 -32 -69
-31 -5 1 59 38 67 40 1 0 2 -4 2 -9z m-7608 -26 c220 -5 291 -15 803 -115 165
-32 374 -70 465 -84 629 -102 691 -114 600 -115 -110 -2 -280 24 -895 135
-258 47 -524 94 -590 104 -161 27 -465 60 -545 60 -98 0 -179 11 -155 21 11 5
43 6 70 3 28 -3 139 -7 247 -9z m2945 -17 c62 -17 113 -35 113 -39 0 -13 -216
44 -234 62 -15 14 -1 11 121 -23z m-5132 -19 c98 -9 451 -50 563 -65 60 -8 52
-24 -10 -23 -46 1 -49 2 -23 9 19 5 -3 7 -60 5 -57 -2 -75 -1 -50 4 37 6 34 7
-40 15 -44 4 -159 17 -255 28 -110 12 -275 22 -444 25 -171 4 -263 9 -255 15
16 11 411 2 574 -13z m9615 -17 c-75 -52 -107 -81 -123 -115 -18 -37 -18 -38
3 -83 27 -54 89 -104 227 -180 131 -72 110 -69 -36 6 -93 47 -130 73 -175 119
-49 52 -56 64 -56 100 0 50 40 99 114 142 55 31 87 39 46 11z m-3280 -18 c0
-8 5 -12 10 -9 6 3 10 -1 10 -9 0 -9 -8 -16 -18 -16 -10 0 -23 -5 -30 -12 -16
-16 -16 2 0 37 13 28 28 33 28 9z m-7251 2 c-12 -10 -79 -16 -79 -6 0 5 19 10
42 10 23 0 39 -2 37 -4z m801 -20 c0 -8 -61 -12 -66 -4 -3 4 11 8 30 8 20 0
36 -2 36 -4z m98 -13 c-10 -2 -26 -2 -35 0 -10 3 -2 5 17 5 19 0 27 -2 18 -5z
m379 1 c-3 -3 -12 -4 -19 -1 -8 3 -5 6 6 6 11 1 17 -2 13 -5z m-234 -11 c-13
-2 -33 -2 -45 0 -13 2 -3 4 22 4 25 0 35 -2 23 -4z m135 -10 c-15 -2 -42 -2
-60 0 -18 2 -6 4 27 4 33 0 48 -2 33 -4z m542 -2 c20 -6 15 -9 -30 -15 -42 -5
-63 -3 -85 8 -30 16 -30 16 30 15 33 -1 71 -4 85 -8z m245 -20 c47 -6 49 -7
28 -19 -17 -9 -23 -9 -23 -1 0 6 -7 8 -17 5 -22 -9 -123 4 -123 15 0 10 62 10
135 0z m575 -11 c366 6 630 -2 820 -24 316 -37 686 -88 700 -97 21 -12 -8 -12
-85 1 -33 5 -113 16 -177 25 -65 8 -169 22 -230 30 -285 37 -452 45 -941 44
-447 -1 -597 4 -597 20 0 3 44 4 97 1 54 -3 240 -3 413 0z m4435 -50 c4 -6
-14 -10 -47 -9 -39 0 -48 3 -33 9 28 12 73 12 80 0z m2764 -57 c12 -24 17 -43
11 -43 -12 0 -40 53 -40 76 0 22 3 19 29 -33z m-519 7 c0 -5 -10 -10 -22 -9
-22 0 -22 1 -3 9 11 5 21 9 23 9 1 1 2 -3 2 -9z m-4955 -45 c492 -88 804 -137
1080 -170 399 -47 469 -56 474 -62 8 -8 -139 4 -339 28 -91 10 -205 24 -255
29 -265 31 -525 72 -1082 171 -35 6 -63 15 -63 20 0 14 33 11 185 -16z m6610
-243 c-6 -6 -74 18 -80 28 -3 5 14 2 39 -7 25 -10 43 -19 41 -21z m-4982 1
c-7 -2 -21 -2 -30 0 -10 3 -4 5 12 5 17 0 24 -2 18 -5z m42 -3 c3 -5 2 -10 -4
-10 -5 0 -13 5 -16 10 -3 6 -2 10 4 10 5 0 13 -4 16 -10z m132 -16 c-3 -3 -12
-4 -19 -1 -8 3 -5 6 6 6 11 1 17 -2 13 -5z m60 -10 c-3 -3 -12 -4 -19 -1 -8 3
-5 6 6 6 11 1 17 -2 13 -5z m4943 -45 c13 -7 13 -8 0 -8 -8 0 -26 6 -40 15
l-25 15 25 -7 c14 -3 32 -10 40 -15z m217 -70 c189 -66 197 -69 191 -74 -5 -5
-320 99 -347 115 -35 21 15 7 156 -41z m-932 21 c3 -5 2 -10 -4 -10 -5 0 -13
5 -16 10 -3 6 -2 10 4 10 5 0 13 -4 16 -10z m-10304 -157 c29 -34 40 -95 19
-108 -6 -4 -10 7 -10 25 0 37 -24 81 -53 100 -17 10 -16 6 6 -19 50 -60 33
-127 -48 -191 -38 -30 -40 -31 -43 -11 -2 12 12 40 32 67 47 61 47 93 1 138
-22 22 -35 45 -35 61 l0 26 51 -27 c28 -16 64 -43 80 -61z m11804 -48 c327
-99 749 -213 1115 -300 290 -69 379 -95 328 -95 -24 0 -707 171 -958 240 -273
75 -812 239 -824 251 -11 10 22 1 339 -96z m-11915 -30 c0 -11 -5 -27 -10 -35
-7 -11 -10 -1 -10 35 0 36 3 46 10 35 5 -8 10 -24 10 -35z m8306 -29 c65 -24
104 -50 92 -61 -3 -4 -20 1 -37 9 -16 9 -34 16 -38 16 -4 0 55 -33 132 -73 77
-40 178 -98 225 -129 47 -31 119 -73 160 -94 385 -193 692 -431 1001 -775 83
-93 155 -169 160 -169 5 0 50 -35 101 -78 127 -106 204 -166 328 -252 58 -40
109 -77 114 -82 6 -4 -24 -8 -65 -8 l-75 0 -173 119 c-294 202 -400 290 -641
531 -137 137 -272 262 -345 318 -157 122 -872 600 -960 642 -49 23 -88 34
-135 38 -64 4 -72 2 -201 -55 -74 -33 -149 -66 -167 -73 -18 -7 -31 -14 -29
-16 2 -2 31 7 65 21 34 14 107 37 162 51 174 45 183 40 760 -371 326 -233 429
-317 641 -520 213 -205 338 -305 637 -514 127 -90 232 -165 232 -167 0 -2 -91
-4 -202 -4 l-203 0 -270 210 c-378 295 -452 343 -900 584 -99 54 -223 126
-275 161 -100 67 -223 166 -215 173 2 3 37 -20 77 -51 43 -34 75 -52 79 -45 4
6 16 4 33 -7 15 -10 29 -16 31 -13 3 3 -55 55 -128 116 -73 61 -144 125 -156
144 -24 35 -87 86 -136 112 -43 23 -173 21 -267 -4 -181 -47 -536 -208 -758
-343 -58 -35 -300 -182 -538 -325 -438 -265 -491 -298 -504 -316 -15 -22 3
-14 106 45 58 34 109 60 112 57 12 -12 -228 -152 -278 -163 -15 -3 -44 -22
-65 -43 -46 -46 -108 -92 -123 -92 -12 0 -46 -24 -97 -67 -14 -13 -31 -23 -38
-23 -7 0 -20 -9 -30 -20 -10 -11 -27 -22 -38 -26 -11 -4 -38 -19 -60 -35 -40
-29 -41 -29 -185 -29 -144 0 -145 0 -127 20 20 22 45 27 45 8 0 -6 10 -2 23 9
26 24 61 43 79 43 7 0 -5 -12 -27 -26 -62 -41 -65 -49 -9 -21 60 30 175 107
396 264 236 168 404 279 598 393 96 57 303 180 460 273 275 165 432 246 685
357 150 66 170 82 45 36 -139 -50 -144 -52 -275 -114 -167 -78 -295 -148 -630
-347 -160 -95 -333 -196 -385 -226 -144 -80 -461 -296 -525 -357 -11 -11 -40
-33 -65 -49 -25 -17 -74 -54 -110 -83 -36 -29 -78 -59 -95 -67 l-30 -15 30 32
30 32 -32 -16 c-76 -38 -8 55 77 106 36 22 83 55 105 73 38 30 42 31 63 17 22
-15 25 -13 67 34 23 27 39 51 34 52 -5 2 2 13 16 24 14 10 29 17 34 14 4 -3
17 4 27 15 33 37 105 82 131 82 13 -1 27 6 30 13 7 19 250 161 553 324 63 34
141 82 173 106 33 24 63 44 67 44 5 0 28 12 52 28 64 41 74 46 198 107 63 31
165 76 225 100 158 61 362 150 596 258 112 52 236 105 274 117 39 13 75 26 80
30 14 12 76 28 107 29 15 1 57 -10 94 -23z m-2121 -85 c-10 -8 -456 -108 -615
-137 -185 -33 -328 -86 -830 -309 -415 -183 -513 -232 -569 -284 -43 -40 -55
-81 -23 -81 31 0 60 -29 96 -93 50 -90 52 -97 26 -97 -20 0 -95 20 -153 42
-15 6 -55 40 -87 76 -77 83 -78 103 -11 165 58 55 96 74 496 255 573 259 687
298 1173 402 259 56 526 89 497 61z m2741 -169 c300 -165 538 -312 516 -320
-6 -2 -150 79 -319 181 -169 101 -342 203 -384 226 -42 22 -83 49 -90 58 -10
12 0 9 31 -9 25 -14 136 -75 246 -136z m-3931 -42 c-3 -5 -14 -10 -23 -10 -15
0 -15 2 -2 10 20 13 33 13 25 0z m-95 -39 c-46 -27 -453 -202 -462 -199 -12 4
439 207 462 207 13 0 13 -1 0 -8z m4424 -36 c11 -8 15 -15 10 -15 -6 0 -19 7
-30 15 -10 8 -14 14 -9 14 6 0 19 -6 29 -14z m-1499 -17 c36 -16 11 -28 -34
-16 -54 15 -133 4 -257 -36 -120 -39 -145 -44 -100 -20 111 61 329 101 391 72z
m215 -33 c46 -48 34 -51 -14 -3 -21 21 -34 38 -29 38 5 0 24 -16 43 -35z
m1346 7 c-4 -3 -14 2 -24 12 -16 18 -16 18 6 6 13 -6 21 -14 18 -18z m-1581
-12 c4 -6 -8 -10 -29 -10 -19 0 -38 5 -41 10 -4 6 8 10 29 10 19 0 38 -4 41
-10z m247 -82 c51 -40 124 -99 163 -132 111 -95 244 -176 531 -324 291 -150
388 -207 534 -315 228 -169 533 -411 522 -415 -7 -2 -18 0 -25 6 -7 5 -75 58
-152 118 -163 127 -245 188 -245 180 0 -2 84 -71 187 -152 102 -82 181 -150
175 -152 -5 -1 -104 72 -219 164 -114 92 -256 203 -315 247 -59 43 -106 83
-103 87 3 4 -2 11 -11 14 -9 3 -12 2 -8 -5 9 -15 -54 19 -76 41 -33 33 -67 51
-86 44 -12 -4 -15 -3 -7 3 8 5 -75 52 -240 136 -139 70 -306 163 -372 207 -66
44 -125 80 -132 80 -14 0 -195 143 -232 183 -24 27 -23 57 3 57 8 0 56 -32
108 -72z m1378 22 c14 -11 21 -20 15 -20 -5 0 -21 9 -35 20 -14 11 -20 20 -15
20 6 0 21 -9 35 -20z m-1713 -11 c15 -5 81 -54 145 -107 292 -240 304 -247
733 -417 454 -181 522 -222 924 -564 l124 -106 -127 -3 -128 -3 -113 109
c-162 156 -264 234 -384 295 -151 77 -251 107 -636 192 -376 83 -435 100 -545
156 -107 54 -135 75 -135 101 0 17 -14 29 -59 53 -89 45 -182 47 -303 6 -155
-51 -655 -313 -1251 -655 -480 -275 -446 -257 -508 -254 l-54 3 323 194 c177
107 548 331 825 498 277 166 544 325 595 352 112 60 264 125 337 145 65 17
197 20 237 5z m-3347 -68 c0 -5 -13 -14 -30 -20 -37 -13 -39 -6 -2 13 33 18
32 18 32 7z m2780 -35 c0 -3 -4 -8 -10 -11 -5 -3 -10 -1 -10 4 0 6 5 11 10 11
6 0 10 -2 10 -4z m-50 -26 c0 -5 -5 -10 -11 -10 -5 0 -7 5 -4 10 3 6 8 10 11
10 2 0 4 -4 4 -10z m2620 -10 c8 -5 11 -10 5 -10 -5 0 -17 5 -25 10 -8 5 -10
10 -5 10 6 0 17 -5 25 -10z m-2685 -30 c-3 -5 -11 -10 -16 -10 -6 0 -7 5 -4
10 3 6 11 10 16 10 6 0 7 -4 4 -10z m2922 -108 c117 -69 144 -93 51 -46 -58
29 -208 123 -208 130 0 7 32 -11 157 -84z m-149 -24 c101 -68 214 -158 201
-158 -23 0 -259 170 -259 186 0 9 14 2 58 -28z m342 -101 c0 -4 -13 -1 -30 8
-16 9 -30 20 -30 25 0 5 13 1 30 -8 16 -9 30 -20 30 -25z m-5840 -94 c0 -20
-3 -24 -11 -16 -7 7 -9 19 -6 27 10 24 17 19 17 -11z m2177 -19 c-3 -3 -12 -4
-19 -1 -8 3 -5 6 6 6 11 1 17 -2 13 -5z m2368 -54 c3 -6 -1 -7 -9 -4 -18 7
-21 14 -7 14 6 0 13 -4 16 -10z m1389 -69 c17 -17 26 -31 22 -31 -11 0 -86 62
-86 72 0 13 32 -7 64 -41z m-4415 16 c-17 -15 -99 -67 -103 -67 -3 0 -6 4 -6
10 0 11 102 72 109 65 2 -3 2 -7 0 -8z m391 -35 c0 -5 -12 -14 -27 -21 -28
-13 -28 -13 -9 8 20 22 36 27 36 13z m1065 -42 c175 -24 391 -40 560 -40 72 0
184 -5 250 -10 435 -36 703 -126 899 -301 34 -31 54 -44 47 -31 -8 15 -8 22
-1 22 6 0 8 5 5 10 -3 6 -2 10 3 10 14 0 85 -65 126 -114 l37 -46 -332 0 -333
0 44 23 c57 28 63 57 23 99 -57 61 -180 108 -343 133 -111 17 -446 20 -601 5
-123 -12 -748 -112 -732 -117 7 -3 71 5 145 16 488 74 810 101 1019 83 225
-19 367 -58 427 -118 37 -37 39 -47 13 -73 -40 -40 -82 -45 -443 -48 -303 -4
-347 -2 -342 11 10 26 -69 39 -176 29 l-85 -7 82 -6 c46 -3 88 -11 95 -18 9
-9 -203 -12 -992 -11 -873 0 -1002 2 -979 14 15 8 179 86 365 174 440 206 652
290 809 319 86 16 264 13 410 -8z m-3895 -139 c41 -11 64 -19 50 -20 -26 -1
-128 24 -138 33 -8 9 7 7 88 -13z m115 -231 c-5 -8 -68 -30 -88 -30 -14 0 4
21 27 30 29 12 69 12 61 0z m5780 -129 c-7 -7 -45 39 -44 54 0 6 11 -3 25 -19
14 -15 22 -31 19 -35z m-5885 9 c-8 -5 -40 -9 -70 -9 -42 1 -49 3 -30 9 38 12
119 12 100 0z m143 -7 c-13 -2 -35 -2 -50 0 -16 2 -5 4 22 4 28 0 40 -2 28 -4z"/>
<path d="M808 2763 c23 -2 59 -2 80 0 20 2 1 4 -43 4 -44 0 -61 -2 -37 -4z"/>
<path d="M4160 2730 c8 -5 20 -10 25 -10 6 0 3 5 -5 10 -8 5 -19 10 -25 10 -5
0 -3 -5 5 -10z"/>
<path d="M8750 2780 c-13 -8 -12 -10 3 -10 9 0 17 5 17 10 0 12 -1 12 -20 0z"/>
<path d="M8647 2695 c-31 -31 -57 -61 -57 -67 0 -14 23 4 78 60 36 38 51 62
39 62 -2 0 -29 -25 -60 -55z"/>
<path d="M8463 2606 c-12 -13 -29 -29 -39 -34 -11 -6 -16 -14 -12 -17 4 -4 26
11 50 34 24 22 38 41 32 41 -6 0 -20 -11 -31 -24z"/>
<path d="M653 2513 c9 -2 23 -2 30 0 6 3 -1 5 -18 5 -16 0 -22 -2 -12 -5z"/>
<path d="M753 2513 c9 -2 23 -2 30 0 6 3 -1 5 -18 5 -16 0 -22 -2 -12 -5z"/>
<path d="M305 2489 c-70 -11 -125 -25 -134 -34 -14 -13 -13 -15 3 -15 25 0 14
-24 -12 -28 -12 -2 -22 -9 -22 -17 0 -22 149 -66 499 -150 129 -30 252 -64
275 -75 l41 -20 -160 5 c-88 3 -194 7 -235 10 -41 2 -68 2 -60 0 29 -8 496
-45 574 -45 69 0 77 2 66 15 -17 20 -67 34 -336 94 -397 89 -489 115 -526 149
-61 54 32 102 232 122 l75 7 -80 1 c-44 0 -134 -9 -200 -19z"/>
<path d="M1313 2370 c-13 -5 -23 -14 -23 -20 0 -13 -1 -13 45 10 40 20 22 28
-22 10z"/>
<path d="M2045 2341 c-115 -3 -216 -10 -222 -14 -20 -13 -15 -45 10 -61 12 -8
137 -54 277 -101 486 -163 598 -248 485 -366 -102 -105 -528 -261 -941 -344
-169 -35 -174 -29 -42 52 98 60 173 124 194 165 39 75 -28 145 -204 213 -246
94 -873 198 -1281 212 -187 6 -203 1 -117 -38 53 -24 87 -24 109 1 22 26 52
26 334 -5 286 -32 499 -67 674 -110 340 -85 449 -166 379 -280 -54 -88 -399
-249 -725 -340 -71 -20 -143 -41 -160 -46 -16 -6 -41 -14 -55 -17 -14 -3 -31
-12 -37 -21 -9 -11 -15 -13 -20 -5 -6 8 -91 -12 -293 -70 -329 -95 -327 -94
-278 -95 53 -1 215 28 658 119 987 203 1548 356 1865 510 226 109 283 200 192
304 -17 21 -97 76 -177 124 -81 48 -145 94 -145 102 0 8 15 18 35 22 60 14
576 30 780 23 442 -14 627 -33 1110 -114 162 -27 354 -56 425 -65 144 -17 655
-57 1035 -81 328 -20 350 -22 900 -76 476 -46 704 -42 895 18 82 26 206 85
260 123 41 29 28 24 -105 -43 -176 -88 -269 -108 -515 -114 -163 -4 -233 -1
-380 17 -425 50 -749 80 -1455 135 -484 38 -582 49 -990 120 -678 118 -851
133 -1630 140 -283 3 -542 6 -575 8 -33 2 -154 1 -270 -2z m90 -81 c12 -12 46
-30 76 -41 40 -14 49 -15 35 -4 -11 8 -23 15 -28 15 -4 0 -8 5 -8 11 0 7 7 8
18 4 9 -5 98 -39 197 -77 247 -95 326 -143 365 -224 19 -39 20 -45 7 -77 -21
-48 -38 -57 -31 -15 l7 33 -30 -43 c-38 -56 -105 -104 -228 -162 -106 -51
-358 -141 -391 -139 -14 0 -15 2 -4 6 8 3 82 30 163 59 314 113 453 210 431
300 -17 68 -139 144 -408 253 -151 62 -216 95 -216 112 0 16 23 10 45 -11z
m-65 -734 c0 -2 -9 -6 -20 -9 -11 -3 -18 -1 -14 4 5 9 34 13 34 5z m-373 -102
c-3 -3 -12 -4 -19 -1 -8 3 -5 6 6 6 11 1 17 -2 13 -5z m-88 -18 c-7 -6 -459
-104 -516 -111 -31 -4 -53 -3 -53 2 0 15 47 33 87 33 53 0 227 27 345 54 100
23 146 30 137 22z m-999 -206 l-35 -19 34 -1 c19 0 32 -2 29 -5 -10 -10 -171
-36 -206 -33 -33 3 -24 7 73 40 124 41 157 46 105 18z"/>
<path d="M8422 2241 c-41 -31 -59 -51 -45 -51 5 0 15 6 22 13 10 10 16 7 31
-13 l18 -24 5 29 c3 17 4 4 3 -27 -2 -48 -7 -62 -29 -82 -32 -30 -34 -40 -7
-33 38 10 20 -14 -39 -51 -33 -20 -154 -95 -270 -167 -115 -71 -208 -132 -205
-134 2 -2 64 33 138 78 74 45 174 102 223 127 l88 45 111 -7 111 -7 21 31 c12
16 22 36 22 43 0 15 -79 89 -96 89 -7 0 -16 17 -19 38 -12 75 -27 132 -34 132
-5 0 -26 -13 -49 -29z"/>
<path d="M423 2173 c9 -2 25 -2 35 0 9 3 1 5 -18 5 -19 0 -27 -2 -17 -5z"/>
<path d="M3930 2039 c-90 -13 -146 -36 -315 -129 -185 -103 -332 -166 -605
-261 -107 -37 -190 -68 -183 -68 19 -1 318 97 443 146 63 24 223 98 355 164
156 78 259 123 294 129 29 6 126 11 215 12 134 1 148 2 86 8 -100 10 -223 9
-290 -1z"/>
<path d="M4318 2023 c12 -2 32 -2 45 0 12 2 2 4 -23 4 -25 0 -35 -2 -22 -4z"/>
<path d="M4543 2003 c9 -2 23 -2 30 0 6 3 -1 5 -18 5 -16 0 -22 -2 -12 -5z"/>
<path d="M4683 1993 c15 -2 37 -2 50 0 12 2 0 4 -28 4 -27 0 -38 -2 -22 -4z"/>
<path d="M4823 1983 c15 -2 37 -2 50 0 12 2 0 4 -28 4 -27 0 -38 -2 -22 -4z"/>
<path d="M8811 1956 c2 -2 15 -9 29 -16 23 -12 24 -12 11 3 -7 10 -20 17 -29
17 -8 0 -13 -2 -11 -4z"/>
<path d="M272 1889 c49 -47 64 -82 53 -126 -5 -23 -4 -26 6 -15 37 36 -3 126
-72 166 -31 17 -30 15 13 -25z"/>
<path d="M7738 1909 c-24 -26 -22 -31 7 -17 14 6 25 17 25 25 0 18 -12 15 -32
-8z"/>
<path d="M4548 1883 c23 -2 61 -2 85 0 23 2 4 4 -43 4 -47 0 -66 -2 -42 -4z"/>
<path d="M987 1866 c-34 -12 -127 -87 -136 -109 -5 -13 34 9 50 29 8 10 34 30
58 46 35 22 57 28 97 28 153 0 324 -81 324 -154 0 -11 -9 -35 -20 -53 -23 -38
-1 -36 24 2 23 35 20 78 -8 108 -69 75 -300 136 -389 103z"/>
<path d="M4280 1864 c-52 -8 -142 -27 -200 -43 -129 -37 -702 -232 -696 -238
7 -8 245 67 436 137 266 98 405 132 599 150 83 7 84 7 21 8 -36 0 -108 -6
-160 -14z"/>
<path d="M6897 1873 c18 -2 50 -2 70 0 21 2 7 4 -32 4 -38 0 -55 -2 -38 -4z"/>
<path d="M7028 1863 c6 -2 18 -2 25 0 6 3 1 5 -13 5 -14 0 -19 -2 -12 -5z"/>
<path d="M5578 1833 c7 -3 16 -2 19 1 4 3 -2 6 -13 5 -11 0 -14 -3 -6 -6z"/>
<path d="M5458 1823 c7 -3 16 -2 19 1 4 3 -2 6 -13 5 -11 0 -14 -3 -6 -6z"/>
<path d="M5223 1813 c15 -2 37 -2 50 0 12 2 0 4 -28 4 -27 0 -38 -2 -22 -4z"/>
<path d="M5113 1803 c15 -2 37 -2 50 0 12 2 0 4 -28 4 -27 0 -38 -2 -22 -4z"/>
<path d="M5003 1793 c9 -2 23 -2 30 0 6 3 -1 5 -18 5 -16 0 -22 -2 -12 -5z"/>
<path d="M1038 1780 c-15 -4 -37 -16 -50 -25 l-23 -17 24 7 c38 11 91 35 91
40 0 6 -8 5 -42 -5z"/>
<path d="M4793 1773 c9 -2 23 -2 30 0 6 3 -1 5 -18 5 -16 0 -22 -2 -12 -5z"/>
<path d="M4713 1763 c9 -2 23 -2 30 0 6 3 -1 5 -18 5 -16 0 -22 -2 -12 -5z"/>
<path d="M4648 1753 c6 -2 18 -2 25 0 6 3 1 5 -13 5 -14 0 -19 -2 -12 -5z"/>
<path d="M4588 1743 c7 -3 16 -2 19 1 4 3 -2 6 -13 5 -11 0 -14 -3 -6 -6z"/>
<path d="M827 1733 c-4 -3 -7 -11 -7 -17 0 -6 5 -5 12 2 6 6 9 14 7 17 -3 3
-9 2 -12 -2z"/>
<path d="M4528 1733 c7 -3 16 -2 19 1 4 3 -2 6 -13 5 -11 0 -14 -3 -6 -6z"/>
<path d="M4478 1723 c7 -3 16 -2 19 1 4 3 -2 6 -13 5 -11 0 -14 -3 -6 -6z"/>
<path d="M821 1662 c-57 -31 -97 -58 -88 -60 17 -3 134 61 177 97 38 31 24 25
-89 -37z"/>
<path d="M779 1689 c-23 -19 -23 -20 -2 -10 12 6 25 16 28 21 10 16 -1 12 -26
-11z"/>
<path d="M470 1649 c0 -5 5 -7 10 -4 6 3 10 8 10 11 0 2 -4 4 -10 4 -5 0 -10
-5 -10 -11z"/>
<path d="M1295 1590 c-3 -5 -1 -10 4 -10 6 0 11 5 11 10 0 6 -2 10 -4 10 -3 0
-8 -4 -11 -10z"/>
<path d="M1156 1565 c-11 -8 -15 -15 -9 -15 6 0 16 7 23 15 16 19 11 19 -14 0z"/>
<path d="M7325 1570 c-11 -5 -107 -41 -213 -80 -106 -39 -243 -93 -304 -120
-118 -53 -348 -179 -348 -191 0 -5 -21 -23 -47 -40 -54 -36 -155 -136 -126
-124 10 4 27 9 38 12 l20 4 -20 -16 c-11 -9 -31 -14 -44 -12 -28 6 -51 -1 -51
-14 0 -19 64 -8 123 23 58 29 142 68 502 235 145 67 365 160 495 208 41 15 80
32 85 37 6 5 -42 -10 -105 -32 -63 -23 -164 -60 -225 -82 -60 -21 -132 -44
-160 -49 -27 -5 -62 -18 -77 -29 -41 -30 -172 -80 -179 -68 -5 7 -23 5 -53 -5
-25 -9 -46 -13 -46 -9 1 10 170 104 280 155 52 24 185 79 295 122 110 42 202
79 204 81 8 7 -24 3 -44 -6z m-674 -364 c-12 -14 -92 -46 -115 -46 -20 0 11
21 60 40 60 23 70 24 55 6z"/>
<path d="M457 1498 c-32 -11 -56 -22 -54 -24 5 -5 99 26 112 37 12 11 11 11
-58 -13z"/>
<path d="M6775 1505 c-25 -12 -26 -14 -5 -9 14 4 29 10 35 15 12 12 5 11 -30
-6z"/>
<path d="M2918 1463 c7 -3 16 -2 19 1 4 3 -2 6 -13 5 -11 0 -14 -3 -6 -6z"/>
<path d="M2868 1453 c7 -3 16 -2 19 1 4 3 -2 6 -13 5 -11 0 -14 -3 -6 -6z"/>
<path d="M2828 1443 c7 -3 16 -2 19 1 4 3 -2 6 -13 5 -11 0 -14 -3 -6 -6z"/>
<path d="M6574 1435 c-17 -13 -16 -14 14 -4 33 11 41 19 19 19 -7 0 -22 -7
-33 -15z"/>
<path d="M6414 1375 c-17 -13 -16 -14 14 -4 33 11 41 19 19 19 -7 0 -22 -7
-33 -15z"/>
<path d="M6082 1348 c-40 -17 -71 -33 -68 -35 2 -2 42 12 87 31 46 19 77 35
69 35 -8 -1 -48 -14 -88 -31z"/>
<path d="M6310 1330 c-9 -6 -10 -10 -3 -10 6 0 15 5 18 10 8 12 4 12 -15 0z"/>
<path d="M5995 1256 c-131 -58 -502 -242 -605 -301 -157 -89 -259 -178 -296
-260 -20 -45 -23 -68 -26 -242 -2 -106 0 -184 3 -174 4 9 9 89 11 177 4 148 7
164 33 221 32 73 102 144 215 220 110 74 368 210 595 314 110 50 202 93 204
95 14 13 -29 -3 -134 -50z"/>
<path d="M6035 1210 c-3 -5 -2 -10 4 -10 5 0 13 5 16 10 3 6 2 10 -4 10 -5 0
-13 -4 -16 -10z"/>
<path d="M5905 1150 c-3 -5 -1 -10 4 -10 6 0 11 5 11 10 0 6 -2 10 -4 10 -3 0
-8 -4 -11 -10z"/>
<path d="M5775 1079 c-16 -10 -26 -19 -22 -19 11 0 67 29 67 35 0 9 -15 4 -45
-16z"/>
<path d="M5870 1050 c-9 -6 -10 -10 -3 -10 6 0 15 5 18 10 8 12 4 12 -15 0z"/>
<path d="M5700 1040 c-9 -6 -10 -10 -3 -10 6 0 15 5 18 10 8 12 4 12 -15 0z"/>
<path d="M5800 1010 c-8 -5 -10 -10 -5 -10 6 0 17 5 25 10 8 5 11 10 5 10 -5
0 -17 -5 -25 -10z"/>
<path d="M10345 1012 c6 -6 74 -43 153 -81 261 -129 283 -130 50 -2 -131 73
-232 114 -203 83z"/>
<path d="M1336 920 c-625 -121 -743 -159 -664 -214 28 -20 58 -21 58 -1 0 8 8
18 18 23 47 25 243 83 375 111 81 18 173 41 205 52 31 11 154 40 272 65 118
24 220 46 225 49 37 14 -86 -7 -489 -85z"/>
<path d="M5586 974 c-11 -8 -16 -14 -10 -14 13 0 39 18 34 24 -3 2 -14 -2 -24
-10z"/>
<path d="M5860 980 c-9 -6 -10 -10 -3 -10 6 0 15 5 18 10 8 12 4 12 -15 0z"/>
<path d="M5506 931 c-4 -5 3 -7 14 -4 23 6 26 13 6 13 -8 0 -17 -4 -20 -9z"/>
<path d="M5610 893 c-143 -95 -250 -204 -288 -293 -8 -19 -32 -95 -53 -168
-41 -139 -61 -187 -112 -262 -19 -27 -23 -39 -12 -30 34 27 92 129 120 207 15
43 50 136 78 208 44 113 59 138 107 189 30 32 92 85 138 118 72 53 90 68 79
68 -1 0 -27 -16 -57 -37z"/>
<path d="M5718 887 c-26 -17 -48 -36 -48 -40 0 -8 88 51 96 65 8 13 1 9 -48
-25z"/>
<path d="M4925 810 c-16 -16 -27 -31 -24 -33 2 -2 17 11 32 30 36 41 31 43 -8
3z"/>
<path d="M5016 794 c-58 -59 -69 -95 -64 -195 4 -69 3 -86 -8 -82 -10 3 -11
-2 -5 -24 5 -15 13 -27 19 -26 8 2 9 -8 5 -27 -4 -20 -2 -30 7 -30 8 0 10 -8
7 -22 -3 -11 -2 -43 4 -71 7 -38 5 -62 -6 -100 -8 -28 -11 -47 -6 -42 15 15
41 124 41 171 0 22 -9 85 -21 140 -31 148 -14 230 64 312 23 24 27 32 14 32
-9 0 -32 -16 -51 -36z"/>
<path d="M1210 695 c0 -10 10 -15 33 -15 l32 1 -25 14 c-32 18 -40 18 -40 0z"/>
<path d="M4851 630 c0 -25 4 -52 9 -60 12 -19 12 42 0 80 -7 21 -8 17 -9 -20z"/>
<path d="M4900 451 c0 -6 4 -13 10 -16 6 -3 7 1 4 9 -7 18 -14 21 -14 7z"/>
<path d="M3121 436 c13 -13 290 -77 306 -71 23 9 4 15 -160 50 -111 24 -156
30 -146 21z"/>
<path d="M228 383 c29 -2 74 -2 100 0 26 2 2 3 -53 3 -55 0 -76 -1 -47 -3z"/>
<path d="M438 373 c28 -2 76 -2 105 0 28 2 5 3 -53 3 -58 0 -81 -1 -52 -3z"/>
<path d="M658 363 c28 -2 76 -2 105 0 28 2 5 3 -53 3 -58 0 -81 -1 -52 -3z"/>
<path d="M203 293 c15 -2 39 -2 55 0 15 2 2 4 -28 4 -30 0 -43 -2 -27 -4z"/>
<path d="M388 283 c12 -2 30 -2 40 0 9 3 -1 5 -23 4 -22 0 -30 -2 -17 -4z"/>
<path d="M3679 270 c13 -11 28 -20 35 -20 6 1 0 10 -13 20 -13 11 -28 20 -35
20 -6 -1 0 -10 13 -20z"/>
<path d="M198 263 c23 -2 59 -2 80 0 20 2 1 4 -43 4 -44 0 -61 -2 -37 -4z"/>
<path d="M1763 233 c9 -2 25 -2 35 0 9 3 1 5 -18 5 -19 0 -27 -2 -17 -5z"/>
<path d="M968 223 c7 -3 16 -2 19 1 4 3 -2 6 -13 5 -11 0 -14 -3 -6 -6z"/>
<path d="M1853 223 c9 -2 25 -2 35 0 9 3 1 5 -18 5 -19 0 -27 -2 -17 -5z"/>
<path d="M1068 213 c7 -3 16 -2 19 1 4 3 -2 6 -13 5 -11 0 -14 -3 -6 -6z"/>
<path d="M640 159 c14 -6 90 -14 170 -18 80 -4 123 -9 95 -10 -72 -2 -125 -12
-125 -24 0 -7 52 -7 158 -2 86 4 283 10 437 14 l280 6 -135 13 c-242 23 -421
32 -665 31 -170 0 -233 -3 -215 -10z"/>
<path d="M1613 163 c9 -2 23 -2 30 0 6 3 -1 5 -18 5 -16 0 -22 -2 -12 -5z"/>
<path d="M1688 153 c12 -2 30 -2 40 0 9 3 -1 5 -23 4 -22 0 -30 -2 -17 -4z"/>
<path d="M1830 135 c217 -38 411 -66 422 -63 15 5 -352 65 -442 72 -62 5 -61
5 20 -9z"/>
<path d="M1693 113 c9 -2 23 -2 30 0 6 3 -1 5 -18 5 -16 0 -22 -2 -12 -5z"/>
<path d="M3801 106 c-10 -11 -8 -16 9 -21 22 -7 53 11 44 26 -8 14 -40 11 -53
-5z"/>
<path d="M524 86 c11 -9 27 -16 35 -16 21 0 2 16 -29 24 -24 7 -24 6 -6 -8z"/>
<path d="M5758 2513 c6 -2 18 -2 25 0 6 3 1 5 -13 5 -14 0 -19 -2 -12 -5z"/>
<path d="M5955 2470 c11 -5 27 -9 35 -9 9 0 8 4 -5 9 -11 5 -27 9 -35 9 -9 0
-8 -4 5 -9z"/>
<path d="M7514 2454 c-18 -14 -18 -15 4 -4 12 6 22 13 22 15 0 8 -5 6 -26 -11z"/>
<path d="M6095 2440 c11 -5 29 -8 40 -8 16 0 15 2 -5 8 -34 11 -60 11 -35 0z"/>
<path d="M6168 2423 c7 -3 16 -2 19 1 4 3 -2 6 -13 5 -11 0 -14 -3 -6 -6z"/>
<path d="M8037 2423 c-4 -3 -7 -11 -7 -17 0 -6 5 -5 12 2 6 6 9 14 7 17 -3 3
-9 2 -12 -2z"/>
<path d="M6355 2380 c11 -5 29 -8 40 -8 16 0 15 2 -5 8 -34 11 -60 11 -35 0z"/>
<path d="M6428 2363 c7 -3 16 -2 19 1 4 3 -2 6 -13 5 -11 0 -14 -3 -6 -6z"/>
<path d="M6468 2353 c7 -3 16 -2 19 1 4 3 -2 6 -13 5 -11 0 -14 -3 -6 -6z"/>
<path d="M6628 2313 c7 -3 16 -2 19 1 4 3 -2 6 -13 5 -11 0 -14 -3 -6 -6z"/>
<path d="M7393 2163 c9 -2 25 -2 35 0 9 3 1 5 -18 5 -19 0 -27 -2 -17 -5z"/>
<path d="M7112 2741 c-14 -38 -11 -49 7 -27 7 8 11 25 9 38 -3 20 -5 19 -16
-11z"/>
<path d="M6618 2693 c7 -3 16 -2 19 1 4 3 -2 6 -13 5 -11 0 -14 -3 -6 -6z"/>
<path d="M6745 2629 c22 -4 58 -8 80 -7 l40 1 -45 8 c-25 4 -61 7 -80 7 l-35
0 40 -9z"/>
<path d="M8805 2480 c-11 -50 4 -109 37 -144 l29 -31 -24 40 c-23 37 -49 140
-27 105 5 -8 10 -21 10 -28 0 -25 30 -77 51 -90 18 -12 18 -9 -5 21 -16 21
-31 59 -38 96 -13 67 -23 77 -33 31z"/>
<path d="M8890 2285 c0 -2 10 -10 23 -16 20 -11 21 -11 8 4 -13 16 -31 23 -31
12z"/>
<path d="M8967 2239 c7 -7 15 -10 18 -7 3 3 -2 9 -12 12 -14 6 -15 5 -6 -5z"/>
<path d="M9795 1839 c60 -33 397 -190 401 -186 2 2 -79 43 -181 92 -101 48
-183 91 -181 94 2 3 -6 6 -17 7 -12 0 -31 4 -42 8 -11 4 -2 -3 20 -15z"/>
<path d="M9930 1800 c8 -5 20 -10 25 -10 6 0 3 5 -5 10 -8 5 -19 10 -25 10 -5
0 -3 -5 5 -10z"/>
<path d="M10260 1620 c30 -16 60 -29 65 -29 6 0 -15 13 -45 29 -30 16 -59 29
-65 29 -5 0 15 -13 45 -29z"/>
<path d="M10380 1565 c25 -13 50 -24 55 -24 6 0 -10 11 -35 24 -25 13 -49 24
-55 24 -5 0 10 -11 35 -24z"/>
<path d="M9771 2474 c0 -11 3 -14 6 -6 3 7 2 16 -1 19 -3 4 -6 -2 -5 -13z"/>
<path d="M9485 2448 c-33 -91 -35 -102 -23 -110 31 -19 38 -8 38 57 0 62 -5
80 -15 53z"/>
<path d="M11200 1702 c8 -5 26 -13 40 -16 17 -5 20 -4 10 2 -8 5 -26 13 -40
16 -17 5 -20 4 -10 -2z"/>
<path d="M12760 921 c33 -29 190 -118 190 -107 0 2 -39 28 -87 57 -139 83
-142 85 -103 50z"/>
<path d="M13040 780 c0 -5 -8 -10 -17 -10 -13 0 -8 -9 17 -35 28 -29 41 -35
74 -35 l41 1 -40 35 c-48 43 -75 59 -75 44z"/>
<path d="M8318 1743 c7 -3 16 -2 19 1 4 3 -2 6 -13 5 -11 0 -14 -3 -6 -6z"/>
<path d="M9395 420 c10 -11 20 -20 23 -20 3 0 -3 9 -13 20 -10 11 -20 20 -23
20 -3 0 3 -9 13 -20z"/>
<path d="M7702 1088 c2 -17 15 -27 53 -41 l50 -18 -25 26 c-14 15 -38 34 -53
42 -28 14 -28 14 -25 -9z"/>
<path d="M6973 193 c9 -2 23 -2 30 0 6 3 -1 5 -18 5 -16 0 -22 -2 -12 -5z"/>
<path d="M6875 180 c-27 -7 -27 -8 -5 -8 14 0 39 4 55 8 27 7 27 8 5 8 -14 0
-38 -4 -55 -8z"/>
<path d="M6808 163 c6 -2 18 -2 25 0 6 3 1 5 -13 5 -14 0 -19 -2 -12 -5z"/>
<path d="M7841 136 c2 -2 27 -6 54 -9 32 -4 43 -3 30 3 -19 8 -93 14 -84 6z"/>
<path d="M6400 84 l-45 -14 40 6 c22 3 47 10 55 15 21 12 3 10 -50 -7z"/>
<path d="M7418 73 c7 -3 16 -2 19 1 4 3 -2 6 -13 5 -11 0 -14 -3 -6 -6z"/>
</g>
</svg>
